<?xml version="1.0" encoding="UTF-8" standalone="no"?>
<!DOCTYPE svg PUBLIC "-//W3C//DTD SVG 1.1//EN" "http://www.w3.org/Graphics/SVG/1.1/DTD/svg11.dtd">
<svg width="100%" height="100%" viewBox="0 0 86 86" version="1.1" xmlns="http://www.w3.org/2000/svg" xmlns:xlink="http://www.w3.org/1999/xlink" xml:space="preserve" xmlns:serif="http://www.serif.com/" style="fill-rule:evenodd;clip-rule:evenodd;stroke-linejoin:round;stroke-miterlimit:2;">
    <g id="Layer_1">
        <path d="M43,0.3C19.419,0.3 0.3,19.417 0.3,43L0.3,82.285C0.3,84.164 1.838,85.701 3.716,85.701L82.284,85.701C84.163,85.701 85.7,84.164 85.7,82.285L85.7,43C85.7,19.417 66.583,0.3 43,0.3Z" style="fill:url(#_Linear1);fill-rule:nonzero;"/>
        <g transform="matrix(0.136451,0,0,0.136451,13.0288,15.6868)">
            <g>
                <path d="M47.102,247.94L47.102,153.736C47.102,140.73 36.56,130.184 23.55,130.184C10.542,130.185 0,140.73 0,153.736L0,247.94C0,260.949 10.542,271.492 23.55,271.492C36.56,271.492 47.102,260.949 47.102,247.94Z" style="fill:white;fill-rule:nonzero;"/>
                <path d="M122.99,346.078L122.99,71.308C122.99,58.302 112.45,47.756 99.44,47.756C86.43,47.756 75.889,58.301 75.889,71.308L75.889,346.079C75.889,359.088 86.431,369.631 99.441,369.631C112.451,369.631 122.99,359.087 122.99,346.078Z" style="fill:white;fill-rule:nonzero;"/>
                <path d="M198.881,305.516L198.881,153.736C198.881,140.73 188.339,130.184 175.329,130.184C162.319,130.184 151.779,140.729 151.779,153.736L151.779,305.515C151.779,318.523 162.319,329.067 175.329,329.067C188.339,329.067 198.881,318.523 198.881,305.516Z" style="fill:white;fill-rule:nonzero;"/>
                <path d="M405.605,177.294C392.593,177.294 382.054,187.839 382.054,200.846L382.054,331.697C382.054,344.705 392.593,355.249 405.605,355.249C418.614,355.249 429.157,344.705 429.157,331.697L429.157,200.846C429.157,187.839 418.614,177.294 405.605,177.294Z" style="fill:white;fill-rule:nonzero;"/>
                <path d="M329.721,12.428C316.713,12.428 306.174,22.973 306.174,35.98L306.174,393.178C306.174,406.19 316.713,416.73 329.721,416.73C342.734,416.73 353.273,406.19 353.273,393.178L353.273,35.98C353.272,22.974 342.726,12.428 329.721,12.428Z" style="fill:white;fill-rule:nonzero;"/>
                <path d="M253.832,355.248C266.845,355.248 277.385,344.704 277.385,331.696L277.385,104.679C277.385,91.673 266.845,81.127 253.832,81.127C240.824,81.127 230.281,91.672 230.281,104.679L230.281,331.696C230.281,344.704 240.824,355.248 253.832,355.248Z" style="fill:white;fill-rule:nonzero;"/>
            </g>
        </g>
    </g>
    <defs>
        <linearGradient id="_Linear1" x1="0" y1="0" x2="1" y2="0" gradientUnits="userSpaceOnUse" gradientTransform="matrix(5.22924e-15,-85.4,85.4,5.22924e-15,43,85.7)"><stop offset="0" style="stop-color:rgb(0,49,101);stop-opacity:1"/><stop offset="1" style="stop-color:rgb(0,191,175);stop-opacity:1"/></linearGradient>
    </defs>
</svg>
