<?xml version="1.0" encoding="UTF-8" standalone="no"?>
<svg
   xmlns:dc="http://purl.org/dc/elements/1.1/"
   xmlns:cc="http://creativecommons.org/ns#"
   xmlns:rdf="http://www.w3.org/1999/02/22-rdf-syntax-ns#"
   xmlns:svg="http://www.w3.org/2000/svg"
   xmlns="http://www.w3.org/2000/svg"
   xml:space="preserve"
   style="enable-background:new 0 0 64 64;"
   viewBox="0 0 64 64"
   height="64px"
   width="64px"
   y="0px"
   x="0px"
   id="Layer_1"
   version="1.1"><metadata
   id="metadata19"><rdf:RDF><cc:Work
       rdf:about=""><dc:format>image/svg+xml</dc:format><dc:type
         rdf:resource="http://purl.org/dc/dcmitype/StillImage" /><dc:title></dc:title></cc:Work></rdf:RDF></metadata><defs
   id="defs17">
	
	

		
		
		
	</defs>
<rect
   id="icon-m-add_3_"
   style="opacity:0;fill:#ffffff"
   width="64"
   height="64"
   x="0"
   y="0" /><circle
   id="circle3"
   r="24"
   cy="32"
   cx="32"
   style="opacity:0.2;fill:#ffffff" />
<rect
   y="0"
   x="0"
   id="icon-m-acknowledge_1_"
   style="opacity:0;fill:#ffffff"
   width="64"
   height="64" /><path
   style="fill:#ffffff"
   d="m 30.044,43.151 c -0.012,0 -0.024,0 -0.036,0 -1.231,-0.012 -2.412,-0.636 -3.24,-1.713 l -7.561,-9.829 c -0.337,-0.438 -0.255,-1.066 0.183,-1.402 0.438,-0.338 1.065,-0.254 1.402,0.183 l 7.561,9.83 c 0.458,0.595 1.052,0.926 1.674,0.932 0.659,-0.02 1.223,-0.313 1.691,-0.899 l 13.5,-16.876 c 0.346,-0.431 0.975,-0.502 1.406,-0.156 0.431,0.345 0.501,0.974 0.156,1.405 l -13.5,16.876 c -0.84,1.05 -2.018,1.649 -3.236,1.649 z"
   id="path5" /></svg>
